# xmcd CD database file
#
# Track frame offsets:
#	150
#	19810
#	46137
#	66292
#	80502
#	95282
#	111425
#	130540
#	148877
#	165565
#
# Disc length: 2500 seconds
#
# Revision: 0
# Processed by: cddbd v1.4PL0 Copyright (c) Steve Scherf et al.
# Submitted via: CDex 1.51
#
DISCID=8209c20a
DTITLE=Hired Hands - Stuff That Works
DYEAR=1998
DGENRE=Country
TTITLE0=One More Dollar
TTITLE1=Freight Train
TTITLE2=Copperline
TTITLE3=Don't Walk Away from Love
TTITLE4=I Need You to Turn To
TTITLE5=Nothing to Write Home About
TTITLE6=Read the Signs
TTITLE7=Tried, True and Tested
TTITLE8=One Way or Another
TTITLE9=Stuff that Works
EXTD=YEAR: 1998
EXTT0=
EXTT1=
EXTT2=
EXTT3=
EXTT4=
EXTT5=
EXTT6=
EXTT7=
EXTT8=
EXTT9=
PLAYORDER=
